<mxfile host="app.diagrams.net" modified="2024-03-20T05:28:12.166Z" agent="Mozilla/5.0 (Macintosh; Intel Mac OS X 10_15_7) AppleWebKit/537.36 (KHTML, like Gecko) Chrome/122.0.0.0 Safari/537.36" etag="N57eRBCxe6vt1yJDxI1w" version="24.0.4" type="github">
  <diagram name="Page-1" id="QXQrOLrh2TxL8ZML69AA">
    <mxGraphModel dx="3164" dy="2156" grid="1" gridSize="10" guides="1" tooltips="1" connect="1" arrows="1" fold="1" page="1" pageScale="1" pageWidth="850" pageHeight="1100" math="0" shadow="0">
      <root>
        <mxCell id="0" />
        <mxCell id="1" parent="0" />
        <mxCell id="Ij2glKgWh5G4JfFQvjD3-35" style="edgeStyle=orthogonalEdgeStyle;rounded=0;orthogonalLoop=1;jettySize=auto;html=1;entryX=0.5;entryY=0;entryDx=0;entryDy=0;exitX=0.25;exitY=1;exitDx=0;exitDy=0;" parent="1" source="Ij2glKgWh5G4JfFQvjD3-3" target="Ij2glKgWh5G4JfFQvjD3-81" edge="1">
          <mxGeometry relative="1" as="geometry">
            <mxPoint x="37" y="800" as="targetPoint" />
          </mxGeometry>
        </mxCell>
        <mxCell id="Ij2glKgWh5G4JfFQvjD3-51" style="edgeStyle=orthogonalEdgeStyle;rounded=0;orthogonalLoop=1;jettySize=auto;html=1;entryX=1;entryY=0.5;entryDx=0;entryDy=0;" parent="1" source="Ij2glKgWh5G4JfFQvjD3-3" target="Ij2glKgWh5G4JfFQvjD3-9" edge="1">
          <mxGeometry relative="1" as="geometry" />
        </mxCell>
        <mxCell id="Ij2glKgWh5G4JfFQvjD3-52" style="edgeStyle=orthogonalEdgeStyle;rounded=0;orthogonalLoop=1;jettySize=auto;html=1;exitX=0.5;exitY=1;exitDx=0;exitDy=0;entryX=0.5;entryY=0;entryDx=0;entryDy=0;" parent="1" source="Ij2glKgWh5G4JfFQvjD3-3" target="Ij2glKgWh5G4JfFQvjD3-21" edge="1">
          <mxGeometry relative="1" as="geometry">
            <mxPoint x="182" y="800" as="targetPoint" />
          </mxGeometry>
        </mxCell>
        <mxCell id="Ij2glKgWh5G4JfFQvjD3-62" style="edgeStyle=orthogonalEdgeStyle;rounded=0;orthogonalLoop=1;jettySize=auto;html=1;entryX=0;entryY=0.5;entryDx=0;entryDy=0;" parent="1" source="tUTnhsVYIimUZp7xdD1t-7" target="Ij2glKgWh5G4JfFQvjD3-10" edge="1">
          <mxGeometry relative="1" as="geometry">
            <mxPoint x="212" y="476.00000000000017" as="sourcePoint" />
            <mxPoint x="671" y="649.95" as="targetPoint" />
          </mxGeometry>
        </mxCell>
        <mxCell id="Ij2glKgWh5G4JfFQvjD3-70" style="edgeStyle=orthogonalEdgeStyle;rounded=0;orthogonalLoop=1;jettySize=auto;html=1;exitX=0.75;exitY=1;exitDx=0;exitDy=0;entryX=0.5;entryY=0;entryDx=0;entryDy=0;" parent="1" source="Ij2glKgWh5G4JfFQvjD3-3" target="Ij2glKgWh5G4JfFQvjD3-63" edge="1">
          <mxGeometry relative="1" as="geometry" />
        </mxCell>
        <mxCell id="Ij2glKgWh5G4JfFQvjD3-3" value="" style="shape=ext;double=1;rounded=0;whiteSpace=wrap;html=1;movable=1;resizable=1;rotatable=1;deletable=1;editable=1;locked=0;connectable=1;" parent="1" vertex="1">
          <mxGeometry x="10" y="650" width="410" height="80" as="geometry" />
        </mxCell>
        <mxCell id="E8B6rwo0TzkrYEJieWMp-47" value="&lt;div style=&quot;text-align: justify;&quot;&gt;&lt;b style=&quot;background-color: initial;&quot;&gt;Internet&lt;/b&gt;&lt;/div&gt;" style="ellipse;shape=cloud;whiteSpace=wrap;html=1;fillColor=#FFF4C3;align=center;" parent="1" vertex="1">
          <mxGeometry x="-140" y="-250" width="170" height="200" as="geometry" />
        </mxCell>
        <mxCell id="E8B6rwo0TzkrYEJieWMp-43" value="Cloud&#xa;CDN" style="sketch=0;html=1;verticalAlign=top;labelPosition=center;verticalLabelPosition=bottom;align=center;spacingTop=-6;fontSize=11;fontStyle=1;fontColor=#999999;shape=image;aspect=fixed;imageAspect=0;image=data:image/svg+xml,PHN2ZyB4bWxucz0iaHR0cDovL3d3dy53My5vcmcvMjAwMC9zdmciIHhtbG5zOnY9Imh0dHBzOi8vdmVjdGEuaW8vbmFubyIgd2lkdGg9IjIwIiBoZWlnaHQ9IjIwIiB2aWV3Qm94PSIwIDAgMjAgMjAiPiYjeGE7CTxzdHlsZSB0eXBlPSJ0ZXh0L2NzcyI+JiN4YTsJLnN0MHtmaWxsOiM0Mjg1ZjQ7fSYjeGE7CS5zdDF7ZmlsbDojNjY5ZGY2O30mI3hhOwkuc3Qye2ZpbGw6I2FlY2JmYTt9JiN4YTsJPC9zdHlsZT4mI3hhOwk8cGF0aCBjbGFzcz0ic3QxIiBkPSJNMTMuMTMgNS42M1YzLjIxTDEwIDB2Mi40MXptMy43NSA3LjVMMjAgMTBoLTIuNWwtMy4xMiAzLjEzem0tMTMuNzUgMEwwIDEwaDIuNWwzLjEzIDMuMTN6bTEwIDEuMjV2Mi40MUwxMCAyMHYtMi40MXoiIGZpbGwtcnVsZT0iZXZlbm9kZCIvPiYjeGE7CTxwYXRoIGNsYXNzPSJzdDIiIGQ9Ik02Ljg4IDUuNjNMMTAgMi40MVYwTDYuODggMy4yMXpNMTcuNSAxMEgyMGwtMy4xMi0zLjEyaC0yLjV6bS0xNSAwSDBsMy4xMy0zLjEyaDIuNXptNC4zOCA0LjM4TDEwIDE3LjU5VjIwbC0zLjEyLTMuMjF6bTAtNy41aDYuMjV2Ni4yNUg2Ljg4eiIgZmlsbC1ydWxlPSJldmVub2RkIi8+JiN4YTsJPHBhdGggY2xhc3M9InN0MSIgZD0iTTYuODggMTMuMTNsNi4yNS02LjI1djYuMjV6IiBmaWxsLXJ1bGU9ImV2ZW5vZGQiLz4mI3hhOwk8cGF0aCBjbGFzcz0ic3QwIiBkPSJNMTAgMTBsMy4xMy0zLjEydjYuMjV6IiBmaWxsLXJ1bGU9ImV2ZW5vZGQiLz4mI3hhOzwvc3ZnPg==;" parent="1" vertex="1">
          <mxGeometry x="-70" y="-130" width="42" height="42" as="geometry" />
        </mxCell>
        <mxCell id="E8B6rwo0TzkrYEJieWMp-44" value="" style="image;sketch=0;aspect=fixed;html=1;points=[];align=center;fontSize=12;image=img/lib/mscae/Load_Balancer_feature.svg;" parent="1" vertex="1">
          <mxGeometry y="10" width="45" height="50" as="geometry" />
        </mxCell>
        <mxCell id="E8B6rwo0TzkrYEJieWMp-45" value="Actor" style="shape=umlActor;verticalLabelPosition=bottom;verticalAlign=top;html=1;outlineConnect=0;fillColor=#FFCCE6;" parent="1" vertex="1">
          <mxGeometry x="-240" y="-200" width="30" height="61" as="geometry" />
        </mxCell>
        <mxCell id="E8B6rwo0TzkrYEJieWMp-46" value="" style="group" parent="1" vertex="1" connectable="0">
          <mxGeometry x="-130" y="110" width="620" height="260" as="geometry" />
        </mxCell>
        <mxCell id="E8B6rwo0TzkrYEJieWMp-24" value="" style="rounded=0;whiteSpace=wrap;html=1;fillColor=#D5E8D4;" parent="E8B6rwo0TzkrYEJieWMp-46" vertex="1">
          <mxGeometry width="620" height="260" as="geometry" />
        </mxCell>
        <mxCell id="E8B6rwo0TzkrYEJieWMp-25" value="&lt;div style=&quot;&quot;&gt;&lt;span style=&quot;background-color: initial;&quot;&gt;MyBook Advanced UI Portal&lt;/span&gt;&lt;span style=&quot;background-color: initial; text-wrap: nowrap; color: rgba(0, 0, 0, 0); font-family: monospace; font-size: 0px;&quot;&gt;%3 CmxGraphModel%3E%3Croot%3E%3CmxCell%20id%3D%220%22%2F%3E%3CmxCell%20id%3D%221%22%20parent%3D%220%22%2F%3E%3CmxCell%20id%3D%222%22%20value%3D%22c%22%20style%3D%22ellipse%3BwhiteSpace%3Dwrap%3Bhtml%3D1%3B%22%20vertex%3D%221%22%20parent%3D%221%22%3E%3CmxGeometry%20x%3D%22340%22%20y%3D%22470%22%20width%3D%2210%22%20height%3D%2210%22%20as%3D%22geometry%22%2F%3E%3C%2FmxCell%3E%3C%2Froot%3E%3C%2FmxGraphModel%3E&lt;/span&gt;&lt;span style=&quot;background-color: initial;&quot;&gt;&amp;nbsp;&lt;/span&gt;&lt;span style=&quot;background-color: initial; text-wrap: nowrap; color: rgba(0, 0, 0, 0); font-family: monospace; font-size: 0px;&quot;&gt;%3CmxGraphModel%3E%3Croot%3E%3CmxCell%20id%3D%220%22%2F%3E%3CmxCell%20id%3D%221%22%20parent%3D%220%22%2F%3E%3CmxCell%20id%3D%222%22%20value%3D%22c%22%20style%3D%22ellipse%3BwhiteSpace%3Dwrap%3Bhtml%3D1%3B%22%20vertex%3D%221%22%20parent%3D%221%22%3E%3CmxGeometry%20x%3D%22340%22%20y%3D%22470%22%20width%3D%2210%22%20height%3D%2210%22%20as%3D%22geometry%22%2F%3E%3C%2FmxCell%3E%3C%2Froot%3E%3C%2FmxGraphModel%3E&amp;nbsp; UI&lt;/span&gt;&lt;/div&gt;" style="text;html=1;align=left;verticalAlign=middle;whiteSpace=wrap;rounded=1;fontStyle=5" parent="E8B6rwo0TzkrYEJieWMp-46" vertex="1">
          <mxGeometry x="190" width="190" height="26" as="geometry" />
        </mxCell>
        <mxCell id="E8B6rwo0TzkrYEJieWMp-26" value="Recurring Payment System - UI" style="swimlane;startSize=20;horizontal=1;childLayout=treeLayout;horizontalTree=0;resizable=0;containerType=tree;fontSize=12;" parent="E8B6rwo0TzkrYEJieWMp-46" vertex="1">
          <mxGeometry x="10" y="43.333333333333336" width="280" height="190" as="geometry" />
        </mxCell>
        <mxCell id="E8B6rwo0TzkrYEJieWMp-27" value="Admin" style="whiteSpace=wrap;html=1;" parent="E8B6rwo0TzkrYEJieWMp-26" vertex="1">
          <mxGeometry x="90" y="40" width="100" height="40" as="geometry" />
        </mxCell>
        <mxCell id="E8B6rwo0TzkrYEJieWMp-28" value="Merchant" style="whiteSpace=wrap;html=1;fillColor=#CCCCFF;" parent="E8B6rwo0TzkrYEJieWMp-26" vertex="1">
          <mxGeometry x="20" y="130" width="100" height="40" as="geometry" />
        </mxCell>
        <object label="" YES="" id="E8B6rwo0TzkrYEJieWMp-29">
          <mxCell style="edgeStyle=elbowEdgeStyle;elbow=vertical;html=1;rounded=1;curved=0;sourcePerimeterSpacing=0;targetPerimeterSpacing=0;startSize=6;endSize=6;" parent="E8B6rwo0TzkrYEJieWMp-26" source="E8B6rwo0TzkrYEJieWMp-27" target="E8B6rwo0TzkrYEJieWMp-28" edge="1">
            <mxGeometry relative="1" as="geometry" />
          </mxCell>
        </object>
        <mxCell id="E8B6rwo0TzkrYEJieWMp-32" value="Yes" style="edgeLabel;html=1;align=center;verticalAlign=middle;resizable=0;points=[];" parent="E8B6rwo0TzkrYEJieWMp-29" vertex="1" connectable="0">
          <mxGeometry x="-0.2" relative="1" as="geometry">
            <mxPoint as="offset" />
          </mxGeometry>
        </mxCell>
        <mxCell id="E8B6rwo0TzkrYEJieWMp-30" value="Customer" style="whiteSpace=wrap;html=1;fillColor=#FFB366;" parent="E8B6rwo0TzkrYEJieWMp-26" vertex="1">
          <mxGeometry x="160" y="130" width="100" height="40" as="geometry" />
        </mxCell>
        <object label="" No="" id="E8B6rwo0TzkrYEJieWMp-31">
          <mxCell style="edgeStyle=elbowEdgeStyle;elbow=vertical;html=1;rounded=1;curved=0;sourcePerimeterSpacing=0;targetPerimeterSpacing=0;startSize=6;endSize=6;" parent="E8B6rwo0TzkrYEJieWMp-26" source="E8B6rwo0TzkrYEJieWMp-27" target="E8B6rwo0TzkrYEJieWMp-30" edge="1">
            <mxGeometry relative="1" as="geometry" />
          </mxCell>
        </object>
        <mxCell id="E8B6rwo0TzkrYEJieWMp-33" value="No" style="edgeLabel;html=1;align=center;verticalAlign=middle;resizable=0;points=[];" parent="E8B6rwo0TzkrYEJieWMp-31" vertex="1" connectable="0">
          <mxGeometry x="0.3167" y="1" relative="1" as="geometry">
            <mxPoint as="offset" />
          </mxGeometry>
        </mxCell>
        <mxCell id="E8B6rwo0TzkrYEJieWMp-36" value="" style="shape=image;html=1;verticalLabelPosition=bottom;verticalAlign=top;imageAspect=0;image=img/clipart/Gear_128x128.png" parent="E8B6rwo0TzkrYEJieWMp-26" vertex="1">
          <mxGeometry x="90" y="45" width="30" height="30" as="geometry" />
        </mxCell>
        <mxCell id="E8B6rwo0TzkrYEJieWMp-38" value="MyBook ( Accounting ) - UI" style="swimlane;" parent="E8B6rwo0TzkrYEJieWMp-46" vertex="1">
          <mxGeometry x="310" y="43.333333333333336" width="270" height="164.66666666666669" as="geometry" />
        </mxCell>
        <mxCell id="E8B6rwo0TzkrYEJieWMp-39" value="Core Accounting" style="label;whiteSpace=wrap;html=1;align=center;verticalAlign=bottom;spacingLeft=0;spacingBottom=4;imageAlign=center;imageVerticalAlign=top;image=img/clipart/Gear_128x128.png" parent="E8B6rwo0TzkrYEJieWMp-38" vertex="1">
          <mxGeometry x="10" y="69.33333333333334" width="110" height="69.33333333333334" as="geometry" />
        </mxCell>
        <mxCell id="E8B6rwo0TzkrYEJieWMp-40" value="Payment Processing" style="label;whiteSpace=wrap;html=1;align=center;verticalAlign=bottom;spacingLeft=0;spacingBottom=4;imageAlign=center;imageVerticalAlign=top;image=img/clipart/Gear_128x128.png" parent="E8B6rwo0TzkrYEJieWMp-38" vertex="1">
          <mxGeometry x="130" y="69.33333333333334" width="130" height="69.33333333333334" as="geometry" />
        </mxCell>
        <mxCell id="E8B6rwo0TzkrYEJieWMp-48" style="edgeStyle=orthogonalEdgeStyle;rounded=0;orthogonalLoop=1;jettySize=auto;html=1;entryX=0.07;entryY=0.4;entryDx=0;entryDy=0;entryPerimeter=0;" parent="1" source="E8B6rwo0TzkrYEJieWMp-45" target="E8B6rwo0TzkrYEJieWMp-47" edge="1">
          <mxGeometry relative="1" as="geometry" />
        </mxCell>
        <mxCell id="E8B6rwo0TzkrYEJieWMp-50" style="edgeStyle=orthogonalEdgeStyle;rounded=0;orthogonalLoop=1;jettySize=auto;html=1;exitX=0.5;exitY=1;exitDx=0;exitDy=0;" parent="1" source="E8B6rwo0TzkrYEJieWMp-43" target="E8B6rwo0TzkrYEJieWMp-43" edge="1">
          <mxGeometry relative="1" as="geometry" />
        </mxCell>
        <mxCell id="E8B6rwo0TzkrYEJieWMp-51" value="" style="image;html=1;image=img/lib/clip_art/networking/Firewall_02_128x128.png" parent="1" vertex="1">
          <mxGeometry x="147" y="-100" width="50" height="60" as="geometry" />
        </mxCell>
        <mxCell id="E8B6rwo0TzkrYEJieWMp-52" style="edgeStyle=orthogonalEdgeStyle;rounded=0;orthogonalLoop=1;jettySize=auto;html=1;entryX=0.5;entryY=0;entryDx=0;entryDy=0;" parent="1" source="E8B6rwo0TzkrYEJieWMp-47" target="E8B6rwo0TzkrYEJieWMp-51" edge="1">
          <mxGeometry relative="1" as="geometry" />
        </mxCell>
        <mxCell id="E8B6rwo0TzkrYEJieWMp-53" style="edgeStyle=orthogonalEdgeStyle;rounded=0;orthogonalLoop=1;jettySize=auto;html=1;entryX=0.56;entryY=-0.03;entryDx=0;entryDy=0;entryPerimeter=0;exitX=0;exitY=0.5;exitDx=0;exitDy=0;" parent="1" source="E8B6rwo0TzkrYEJieWMp-51" target="E8B6rwo0TzkrYEJieWMp-44" edge="1">
          <mxGeometry relative="1" as="geometry">
            <mxPoint x="150" y="-40" as="sourcePoint" />
          </mxGeometry>
        </mxCell>
        <mxCell id="E8B6rwo0TzkrYEJieWMp-54" style="edgeStyle=orthogonalEdgeStyle;rounded=0;orthogonalLoop=1;jettySize=auto;html=1;entryX=0.5;entryY=0;entryDx=0;entryDy=0;" parent="1" source="E8B6rwo0TzkrYEJieWMp-44" target="E8B6rwo0TzkrYEJieWMp-25" edge="1">
          <mxGeometry relative="1" as="geometry" />
        </mxCell>
        <mxCell id="E8B6rwo0TzkrYEJieWMp-55" value="PSP&lt;div&gt;(PayPal, Stripe)&lt;/div&gt;" style="labelPosition=center;verticalLabelPosition=middle;align=center;html=1;shape=mxgraph.basic.button;dx=10;whiteSpace=wrap;fillColor=#E6E6E6;" parent="1" vertex="1">
          <mxGeometry x="580" y="196" width="170" height="120" as="geometry" />
        </mxCell>
        <mxCell id="E8B6rwo0TzkrYEJieWMp-56" value="" style="endArrow=classic;html=1;rounded=0;entryX=0;entryY=0.5;entryDx=0;entryDy=0;entryPerimeter=0;exitX=1;exitY=0.5;exitDx=0;exitDy=0;" parent="1" source="E8B6rwo0TzkrYEJieWMp-40" target="E8B6rwo0TzkrYEJieWMp-55" edge="1">
          <mxGeometry relative="1" as="geometry">
            <mxPoint x="360" y="260" as="sourcePoint" />
            <mxPoint x="460" y="260" as="targetPoint" />
          </mxGeometry>
        </mxCell>
        <mxCell id="E8B6rwo0TzkrYEJieWMp-57" value="" style="shape=message;html=1;outlineConnect=0;" parent="E8B6rwo0TzkrYEJieWMp-56" vertex="1">
          <mxGeometry width="20" height="14" relative="1" as="geometry">
            <mxPoint x="-10" y="-7" as="offset" />
          </mxGeometry>
        </mxCell>
        <mxCell id="E8B6rwo0TzkrYEJieWMp-63" style="edgeStyle=orthogonalEdgeStyle;rounded=0;orthogonalLoop=1;jettySize=auto;html=1;exitX=1;exitY=0.5;exitDx=0;exitDy=0;entryX=0.4;entryY=-0.1;entryDx=0;entryDy=0;entryPerimeter=0;" parent="1" source="E8B6rwo0TzkrYEJieWMp-51" target="E8B6rwo0TzkrYEJieWMp-64" edge="1">
          <mxGeometry relative="1" as="geometry">
            <mxPoint x="240" y="10" as="targetPoint" />
            <mxPoint x="250" y="-40" as="sourcePoint" />
          </mxGeometry>
        </mxCell>
        <mxCell id="E8B6rwo0TzkrYEJieWMp-66" style="edgeStyle=orthogonalEdgeStyle;rounded=0;orthogonalLoop=1;jettySize=auto;html=1;entryX=0.5;entryY=0;entryDx=0;entryDy=0;exitX=0;exitY=0.52;exitDx=0;exitDy=0;exitPerimeter=0;" parent="1" source="E8B6rwo0TzkrYEJieWMp-64" target="E8B6rwo0TzkrYEJieWMp-25" edge="1">
          <mxGeometry relative="1" as="geometry" />
        </mxCell>
        <mxCell id="E8B6rwo0TzkrYEJieWMp-64" value="" style="image;sketch=0;aspect=fixed;html=1;points=[];align=center;fontSize=12;image=img/lib/mscae/Load_Balancer_feature.svg;" parent="1" vertex="1">
          <mxGeometry x="280" y="10" width="45" height="50" as="geometry" />
        </mxCell>
        <mxCell id="E8B6rwo0TzkrYEJieWMp-67" value="Frontend Firewall" style="text;html=1;align=center;verticalAlign=middle;whiteSpace=wrap;rounded=0;fontStyle=1;fillColor=#FF8640;" parent="1" vertex="1">
          <mxGeometry x="110" y="-30" width="113" height="30" as="geometry" />
        </mxCell>
        <mxCell id="Ij2glKgWh5G4JfFQvjD3-4" style="edgeStyle=orthogonalEdgeStyle;rounded=0;orthogonalLoop=1;jettySize=auto;html=1;entryX=0.44;entryY=-0.025;entryDx=0;entryDy=0;entryPerimeter=0;exitX=1.022;exitY=0.48;exitDx=0;exitDy=0;exitPerimeter=0;" parent="1" source="E8B6rwo0TzkrYEJieWMp-68" edge="1" target="Ij2glKgWh5G4JfFQvjD3-3">
          <mxGeometry relative="1" as="geometry">
            <mxPoint x="100" y="590" as="targetPoint" />
          </mxGeometry>
        </mxCell>
        <mxCell id="E8B6rwo0TzkrYEJieWMp-68" value="" style="image;sketch=0;aspect=fixed;html=1;points=[];align=center;fontSize=12;image=img/lib/mscae/Load_Balancer_feature.svg;" parent="1" vertex="1">
          <mxGeometry x="50" y="571" width="45" height="50" as="geometry" />
        </mxCell>
        <mxCell id="E8B6rwo0TzkrYEJieWMp-69" style="edgeStyle=orthogonalEdgeStyle;rounded=0;orthogonalLoop=1;jettySize=auto;html=1;exitX=0.5;exitY=1;exitDx=0;exitDy=0;" parent="1" edge="1">
          <mxGeometry relative="1" as="geometry">
            <mxPoint x="-64" y="418" as="sourcePoint" />
            <mxPoint x="-64" y="418" as="targetPoint" />
          </mxGeometry>
        </mxCell>
        <mxCell id="tUTnhsVYIimUZp7xdD1t-8" style="edgeStyle=orthogonalEdgeStyle;rounded=0;orthogonalLoop=1;jettySize=auto;html=1;" edge="1" parent="1" source="E8B6rwo0TzkrYEJieWMp-70" target="tUTnhsVYIimUZp7xdD1t-7">
          <mxGeometry relative="1" as="geometry" />
        </mxCell>
        <mxCell id="E8B6rwo0TzkrYEJieWMp-70" value="" style="image;html=1;image=img/lib/clip_art/networking/Firewall_02_128x128.png" parent="1" vertex="1">
          <mxGeometry x="155" y="393" width="50" height="60" as="geometry" />
        </mxCell>
        <mxCell id="E8B6rwo0TzkrYEJieWMp-71" style="edgeStyle=orthogonalEdgeStyle;rounded=0;orthogonalLoop=1;jettySize=auto;html=1;entryX=0.56;entryY=-0.03;entryDx=0;entryDy=0;entryPerimeter=0;" parent="1" source="tUTnhsVYIimUZp7xdD1t-7" target="E8B6rwo0TzkrYEJieWMp-68" edge="1">
          <mxGeometry relative="1" as="geometry">
            <mxPoint x="135" y="466" as="sourcePoint" />
          </mxGeometry>
        </mxCell>
        <mxCell id="E8B6rwo0TzkrYEJieWMp-72" style="edgeStyle=orthogonalEdgeStyle;rounded=0;orthogonalLoop=1;jettySize=auto;html=1;entryX=0.4;entryY=-0.1;entryDx=0;entryDy=0;entryPerimeter=0;" parent="1" source="tUTnhsVYIimUZp7xdD1t-7" target="E8B6rwo0TzkrYEJieWMp-73" edge="1">
          <mxGeometry relative="1" as="geometry">
            <mxPoint x="225" y="516" as="targetPoint" />
            <mxPoint x="235" y="466" as="sourcePoint" />
          </mxGeometry>
        </mxCell>
        <mxCell id="Ij2glKgWh5G4JfFQvjD3-5" style="edgeStyle=orthogonalEdgeStyle;rounded=0;orthogonalLoop=1;jettySize=auto;html=1;" parent="1" source="E8B6rwo0TzkrYEJieWMp-73" edge="1">
          <mxGeometry relative="1" as="geometry">
            <mxPoint x="190" y="640" as="targetPoint" />
          </mxGeometry>
        </mxCell>
        <mxCell id="E8B6rwo0TzkrYEJieWMp-73" value="" style="image;sketch=0;aspect=fixed;html=1;points=[];align=center;fontSize=12;image=img/lib/mscae/Load_Balancer_feature.svg;" parent="1" vertex="1">
          <mxGeometry x="260" y="571" width="45" height="50" as="geometry" />
        </mxCell>
        <mxCell id="E8B6rwo0TzkrYEJieWMp-74" value="Backend Firewall" style="text;html=1;align=center;verticalAlign=middle;whiteSpace=wrap;rounded=0;fontStyle=1;fillColor=#FF8547;" parent="1" vertex="1">
          <mxGeometry x="212" y="408" width="113" height="30" as="geometry" />
        </mxCell>
        <mxCell id="E8B6rwo0TzkrYEJieWMp-75" style="edgeStyle=orthogonalEdgeStyle;rounded=0;orthogonalLoop=1;jettySize=auto;html=1;" parent="1" source="E8B6rwo0TzkrYEJieWMp-24" target="E8B6rwo0TzkrYEJieWMp-70" edge="1">
          <mxGeometry relative="1" as="geometry" />
        </mxCell>
        <mxCell id="Ij2glKgWh5G4JfFQvjD3-1" value="API Gateway" style="sketch=0;html=1;verticalAlign=top;labelPosition=center;verticalLabelPosition=bottom;align=center;spacingTop=-6;fontSize=11;fontStyle=1;fontColor=#999999;shape=image;aspect=fixed;imageAspect=0;image=data:image/svg+xml,PHN2ZyB4bWxucz0iaHR0cDovL3d3dy53My5vcmcvMjAwMC9zdmciIGhlaWdodD0iMzY3LjgxODMyODg1NzQyMTkiIHZpZXdCb3g9IjcuMTA1NDI3MzU3NjAxMDAyZS0xNSAwIDM2Ni40MTAxODY3Njc1NzgxIDM2Ny44MTgzMjg4NTc0MjE5IiBwcmVzZXJ2ZUFzcGVjdFJhdGlvPSJ4TWlkWU1pZCBtZWV0IiB3aWR0aD0iMzY2LjQxMDE5Njc2NzU3OTEiIHZlcnNpb249IjEuMSIgaWQ9InN2Zzk4NyIgem9vbUFuZFBhbj0ibWFnbmlmeSI+JiN4YTsgIDxwYXRoIGQ9Im0gNDguMjUxOTYsMTExLjUzOTA2IGMgLTcuNjE4NjQsMmUtNCAtMTMuNzk0NzIsNi4xNzYyOCAtMTMuNzk0OTMsMTMuNzk0OTIgMi4xZS00LDcuNjE4NjQgNi4xNzYyOSwxMy43OTQ3MiAxMy43OTQ5MywxMy43OTQ5MiBoIDE0NS4xNDY5MiB2IC0yNy41ODk4NCB6IG0gMjM4LjYwODU5LDU3LjQ1MTE3IGggNjUuNzU0NjkgYyA3LjYxODY0LC0yLjFlLTQgMTMuNzk0NzEsLTYuMTc2MjggMTMuNzk0OTIsLTEzLjc5NDkyIC0yLjFlLTQsLTcuNjE4NjQgLTYuMTc2MjgsLTEzLjc5NDcxIC0xMy43OTQ5MiwtMTMuNzk0OTIgSCAyODQuODUwNiBaIE0gMTMuNzk0OTIsMTcwLjk3NDYxIEMgNi4xNzYyODAxLDE3MC45NzQ4MiAyLjEwMDkxOWUtNCwxNzcuMTUwODkgOS4xODk5MjFlLTgsMTg0Ljc2OTUzIC04LjY5OTA4MWUtNCwxOTIuMzg4OTMgNi4xNzU1MjAxLDE5OC41NjYxOSAxMy43OTQ5MiwxOTguNTY2NCBIIDE5My4zOTg4OCBWIDE3MC45NzQ2MSBaIE0gMjg0LjMwNzgsMjI3LjU2NjQgaCA2OC4zMDc0NCBjIDcuNjE4NjQsLTIuMWUtNCAxMy43OTQ3MSwtNi4xNzYyOCAxMy43OTQ5MiwtMTMuNzk0OTIgLTIuMWUtNCwtNy42MTg2NCAtNi4xNzYyOCwtMTMuNzk0NzEgLTEzLjc5NDkyLC0xMy43OTQ5MiBoIC02NS45MjE3OCB6IG0gLTIzNi4wNTU4NCwxLjY5NzI3IGMgLTcuNjE4NjQsMmUtNCAtMTMuNzk0NzIsNi4xNzYyOCAtMTMuNzk0OTMsMTMuNzk0OTIgMi4xZS00LDcuNjE4NjQgNi4xNzYyOSwxMy43OTQ3MiAxMy43OTQ5MywxMy43OTQ5MiBIIDE5My4zOTg4OCBWIDIyOS4yNjM2NyBaIE0gMTg5LjUyMTQ5LDAgYyAtMjQuNTc0MTEsMCAtNDkuMTY3MzcsMjAuMDU1MDcgLTU5LjQzNzUsNzUuMzczMDQgaCAzMC41ODAwNyBjIDQuNjE2MzMsLTI0LjE2MjA2IDE1LjM0ODk2LC00Ny41MjE0OCAyNy44NTM1MiwtNDcuNTIxNDggMTIuMTU4OCwwIDM5LjQ1ODk4LDU3LjQ1MDQ0IDM5LjQ1ODk4LDE2MC40MTQwNiAwLDY5LjkxNTEzIC0xOS41NzgwOSwxNTIuMTE1MjQgLTQxLjE3MTg3LDE1Mi4xMTUyMyAtMTUuMjY4ODEsMmUtNSAtMjEuMjE2NjgsLTI4LjMzMzU2IC0yNS40NDMzNiwtNDYuNzE4NzQgbCAtMzAuNDE0MDYsLTAuMDY4NCBjIDQuMjIwNzQsMjAuNTQwODcgMTYuOTA3NjgsNzQuMjI0NiA1Ny43MTI4OSw3NC4yMjQ2IDUzLjQzNjcyLDAgNjguOTEyMTEsLTExMS45OTMwNSA2OC45MTIxMSwtMTgwLjQ2Mjg5IEMgMjU3LjU3MjI3LDkzLjgwMDc2IDIzNi41ODM0LDAgMTg5LjUyMTQ5LDAgWiIgc3R5bGU9ImNvbG9yOiMwMDAwMDA7b3BhY2l0eToxO2ZpbGw6IzQyODVmNDtmaWxsLW9wYWNpdHk6MTtzdHJva2UtbGluZWNhcDpyb3VuZDstaW5rc2NhcGUtc3Ryb2tlOm5vbmUiLz4mI3hhOzwvc3ZnPg==;movable=1;resizable=1;rotatable=1;deletable=1;editable=1;locked=0;connectable=1;" parent="1" vertex="1">
          <mxGeometry x="199" y="660.5" width="42" height="42" as="geometry" />
        </mxCell>
        <mxCell id="Ij2glKgWh5G4JfFQvjD3-2" value="API Gateway" style="sketch=0;html=1;verticalAlign=top;labelPosition=center;verticalLabelPosition=bottom;align=center;spacingTop=-6;fontSize=11;fontStyle=1;fontColor=#999999;shape=image;aspect=fixed;imageAspect=0;image=data:image/svg+xml,PHN2ZyB4bWxucz0iaHR0cDovL3d3dy53My5vcmcvMjAwMC9zdmciIGhlaWdodD0iMzY3LjgxODMyODg1NzQyMTkiIHZpZXdCb3g9IjcuMTA1NDI3MzU3NjAxMDAyZS0xNSAwIDM2Ni40MTAxODY3Njc1NzgxIDM2Ny44MTgzMjg4NTc0MjE5IiBwcmVzZXJ2ZUFzcGVjdFJhdGlvPSJ4TWlkWU1pZCBtZWV0IiB3aWR0aD0iMzY2LjQxMDE5Njc2NzU3OTEiIHZlcnNpb249IjEuMSIgaWQ9InN2Zzk4NyIgem9vbUFuZFBhbj0ibWFnbmlmeSI+JiN4YTsgIDxwYXRoIGQ9Im0gNDguMjUxOTYsMTExLjUzOTA2IGMgLTcuNjE4NjQsMmUtNCAtMTMuNzk0NzIsNi4xNzYyOCAtMTMuNzk0OTMsMTMuNzk0OTIgMi4xZS00LDcuNjE4NjQgNi4xNzYyOSwxMy43OTQ3MiAxMy43OTQ5MywxMy43OTQ5MiBoIDE0NS4xNDY5MiB2IC0yNy41ODk4NCB6IG0gMjM4LjYwODU5LDU3LjQ1MTE3IGggNjUuNzU0NjkgYyA3LjYxODY0LC0yLjFlLTQgMTMuNzk0NzEsLTYuMTc2MjggMTMuNzk0OTIsLTEzLjc5NDkyIC0yLjFlLTQsLTcuNjE4NjQgLTYuMTc2MjgsLTEzLjc5NDcxIC0xMy43OTQ5MiwtMTMuNzk0OTIgSCAyODQuODUwNiBaIE0gMTMuNzk0OTIsMTcwLjk3NDYxIEMgNi4xNzYyODAxLDE3MC45NzQ4MiAyLjEwMDkxOWUtNCwxNzcuMTUwODkgOS4xODk5MjFlLTgsMTg0Ljc2OTUzIC04LjY5OTA4MWUtNCwxOTIuMzg4OTMgNi4xNzU1MjAxLDE5OC41NjYxOSAxMy43OTQ5MiwxOTguNTY2NCBIIDE5My4zOTg4OCBWIDE3MC45NzQ2MSBaIE0gMjg0LjMwNzgsMjI3LjU2NjQgaCA2OC4zMDc0NCBjIDcuNjE4NjQsLTIuMWUtNCAxMy43OTQ3MSwtNi4xNzYyOCAxMy43OTQ5MiwtMTMuNzk0OTIgLTIuMWUtNCwtNy42MTg2NCAtNi4xNzYyOCwtMTMuNzk0NzEgLTEzLjc5NDkyLC0xMy43OTQ5MiBoIC02NS45MjE3OCB6IG0gLTIzNi4wNTU4NCwxLjY5NzI3IGMgLTcuNjE4NjQsMmUtNCAtMTMuNzk0NzIsNi4xNzYyOCAtMTMuNzk0OTMsMTMuNzk0OTIgMi4xZS00LDcuNjE4NjQgNi4xNzYyOSwxMy43OTQ3MiAxMy43OTQ5MywxMy43OTQ5MiBIIDE5My4zOTg4OCBWIDIyOS4yNjM2NyBaIE0gMTg5LjUyMTQ5LDAgYyAtMjQuNTc0MTEsMCAtNDkuMTY3MzcsMjAuMDU1MDcgLTU5LjQzNzUsNzUuMzczMDQgaCAzMC41ODAwNyBjIDQuNjE2MzMsLTI0LjE2MjA2IDE1LjM0ODk2LC00Ny41MjE0OCAyNy44NTM1MiwtNDcuNTIxNDggMTIuMTU4OCwwIDM5LjQ1ODk4LDU3LjQ1MDQ0IDM5LjQ1ODk4LDE2MC40MTQwNiAwLDY5LjkxNTEzIC0xOS41NzgwOSwxNTIuMTE1MjQgLTQxLjE3MTg3LDE1Mi4xMTUyMyAtMTUuMjY4ODEsMmUtNSAtMjEuMjE2NjgsLTI4LjMzMzU2IC0yNS40NDMzNiwtNDYuNzE4NzQgbCAtMzAuNDE0MDYsLTAuMDY4NCBjIDQuMjIwNzQsMjAuNTQwODcgMTYuOTA3NjgsNzQuMjI0NiA1Ny43MTI4OSw3NC4yMjQ2IDUzLjQzNjcyLDAgNjguOTEyMTEsLTExMS45OTMwNSA2OC45MTIxMSwtMTgwLjQ2Mjg5IEMgMjU3LjU3MjI3LDkzLjgwMDc2IDIzNi41ODM0LDAgMTg5LjUyMTQ5LDAgWiIgc3R5bGU9ImNvbG9yOiMwMDAwMDA7b3BhY2l0eToxO2ZpbGw6IzQyODVmNDtmaWxsLW9wYWNpdHk6MTtzdHJva2UtbGluZWNhcDpyb3VuZDstaW5rc2NhcGUtc3Ryb2tlOm5vbmUiLz4mI3hhOzwvc3ZnPg==;movable=1;resizable=1;rotatable=1;deletable=1;editable=1;locked=0;connectable=1;" parent="1" vertex="1">
          <mxGeometry x="278" y="663" width="42" height="42" as="geometry" />
        </mxCell>
        <mxCell id="Ij2glKgWh5G4JfFQvjD3-6" value="LB - FT" style="text;html=1;align=center;verticalAlign=middle;whiteSpace=wrap;rounded=0;fontStyle=1" parent="1" vertex="1">
          <mxGeometry x="305" y="581" width="60" height="30" as="geometry" />
        </mxCell>
        <mxCell id="Ij2glKgWh5G4JfFQvjD3-7" value="LB - FT&amp;nbsp;" style="text;html=1;align=center;verticalAlign=middle;whiteSpace=wrap;rounded=0;fontStyle=1" parent="1" vertex="1">
          <mxGeometry x="-7.5" y="581" width="60" height="30" as="geometry" />
        </mxCell>
        <mxCell id="Ij2glKgWh5G4JfFQvjD3-8" value="API Gateway&lt;div&gt;(FT)&lt;/div&gt;" style="text;html=1;align=center;verticalAlign=middle;whiteSpace=wrap;rounded=0;fontStyle=1" parent="1" vertex="1">
          <mxGeometry x="118.5" y="675" width="60" height="30" as="geometry" />
        </mxCell>
        <mxCell id="Ij2glKgWh5G4JfFQvjD3-50" style="edgeStyle=orthogonalEdgeStyle;rounded=0;orthogonalLoop=1;jettySize=auto;html=1;exitX=0;exitY=0.5;exitDx=0;exitDy=0;" parent="1" source="Ij2glKgWh5G4JfFQvjD3-9" target="Ij2glKgWh5G4JfFQvjD3-48" edge="1">
          <mxGeometry relative="1" as="geometry" />
        </mxCell>
        <mxCell id="Ij2glKgWh5G4JfFQvjD3-59" style="edgeStyle=orthogonalEdgeStyle;rounded=0;orthogonalLoop=1;jettySize=auto;html=1;entryX=0.5;entryY=0;entryDx=0;entryDy=0;" parent="1" source="Ij2glKgWh5G4JfFQvjD3-9" target="Ij2glKgWh5G4JfFQvjD3-58" edge="1">
          <mxGeometry relative="1" as="geometry" />
        </mxCell>
        <mxCell id="eb-GinIf9wwiEzNU0itZ-11" style="edgeStyle=orthogonalEdgeStyle;rounded=0;orthogonalLoop=1;jettySize=auto;html=1;" parent="1" source="Ij2glKgWh5G4JfFQvjD3-9" target="eb-GinIf9wwiEzNU0itZ-9" edge="1">
          <mxGeometry relative="1" as="geometry" />
        </mxCell>
        <mxCell id="Ij2glKgWh5G4JfFQvjD3-9" value="Authentication&lt;div&gt;Service&lt;/div&gt;" style="rounded=0;whiteSpace=wrap;html=1;shadow=1;fillColor=#B3B3B3;" parent="1" vertex="1">
          <mxGeometry x="-390" y="491" width="120" height="41" as="geometry" />
        </mxCell>
        <mxCell id="Ij2glKgWh5G4JfFQvjD3-75" style="edgeStyle=orthogonalEdgeStyle;rounded=0;orthogonalLoop=1;jettySize=auto;html=1;" parent="1" source="Ij2glKgWh5G4JfFQvjD3-10" target="Ij2glKgWh5G4JfFQvjD3-74" edge="1">
          <mxGeometry relative="1" as="geometry" />
        </mxCell>
        <mxCell id="Ij2glKgWh5G4JfFQvjD3-80" style="edgeStyle=orthogonalEdgeStyle;rounded=0;orthogonalLoop=1;jettySize=auto;html=1;entryX=0.5;entryY=0;entryDx=0;entryDy=0;" parent="1" source="Ij2glKgWh5G4JfFQvjD3-10" target="Ij2glKgWh5G4JfFQvjD3-77" edge="1">
          <mxGeometry relative="1" as="geometry" />
        </mxCell>
        <mxCell id="Ij2glKgWh5G4JfFQvjD3-10" value="Payment&amp;nbsp;&lt;div&gt;Service&lt;/div&gt;" style="rounded=0;whiteSpace=wrap;html=1;fillColor=#B3B3B3;" parent="1" vertex="1">
          <mxGeometry x="660" y="660.5" width="230" height="59.5" as="geometry" />
        </mxCell>
        <mxCell id="Ij2glKgWh5G4JfFQvjD3-34" style="edgeStyle=orthogonalEdgeStyle;rounded=0;orthogonalLoop=1;jettySize=auto;html=1;entryX=0.5;entryY=0;entryDx=0;entryDy=0;exitX=0;exitY=0.5;exitDx=0;exitDy=0;" parent="1" source="Ij2glKgWh5G4JfFQvjD3-85" target="Ij2glKgWh5G4JfFQvjD3-33" edge="1">
          <mxGeometry relative="1" as="geometry">
            <mxPoint x="-23" y="830" as="sourcePoint" />
          </mxGeometry>
        </mxCell>
        <mxCell id="Ij2glKgWh5G4JfFQvjD3-89" value="WRITE" style="edgeLabel;html=1;align=center;verticalAlign=middle;resizable=0;points=[];fontStyle=1" parent="Ij2glKgWh5G4JfFQvjD3-34" vertex="1" connectable="0">
          <mxGeometry x="0.1954" y="3" relative="1" as="geometry">
            <mxPoint x="49" y="-3" as="offset" />
          </mxGeometry>
        </mxCell>
        <mxCell id="Ij2glKgWh5G4JfFQvjD3-21" value="Notification Service" style="swimlane;startSize=20;horizontal=1;containerType=tree;newEdgeStyle={&quot;edgeStyle&quot;:&quot;elbowEdgeStyle&quot;,&quot;startArrow&quot;:&quot;none&quot;,&quot;endArrow&quot;:&quot;none&quot;};fillColor=#B3B3B3;" parent="1" vertex="1">
          <mxGeometry x="80" y="800" width="280" height="210" as="geometry" />
        </mxCell>
        <mxCell id="Ij2glKgWh5G4JfFQvjD3-22" value="" style="edgeStyle=elbowEdgeStyle;elbow=vertical;sourcePerimeterSpacing=0;targetPerimeterSpacing=0;startArrow=none;endArrow=none;rounded=0;curved=0;" parent="Ij2glKgWh5G4JfFQvjD3-21" source="Ij2glKgWh5G4JfFQvjD3-24" target="Ij2glKgWh5G4JfFQvjD3-25" edge="1">
          <mxGeometry relative="1" as="geometry" />
        </mxCell>
        <mxCell id="Ij2glKgWh5G4JfFQvjD3-23" value="" style="edgeStyle=elbowEdgeStyle;elbow=vertical;sourcePerimeterSpacing=0;targetPerimeterSpacing=0;startArrow=none;endArrow=none;rounded=0;curved=0;" parent="Ij2glKgWh5G4JfFQvjD3-21" source="Ij2glKgWh5G4JfFQvjD3-24" target="Ij2glKgWh5G4JfFQvjD3-26" edge="1">
          <mxGeometry relative="1" as="geometry" />
        </mxCell>
        <UserObject label="Send Notification" treeRoot="1" id="Ij2glKgWh5G4JfFQvjD3-24">
          <mxCell style="whiteSpace=wrap;html=1;align=center;treeFolding=1;treeMoving=1;newEdgeStyle={&quot;edgeStyle&quot;:&quot;elbowEdgeStyle&quot;,&quot;startArrow&quot;:&quot;none&quot;,&quot;endArrow&quot;:&quot;none&quot;};fontStyle=1" parent="Ij2glKgWh5G4JfFQvjD3-21" vertex="1">
            <mxGeometry x="80" y="40" width="120" height="60" as="geometry" />
          </mxCell>
        </UserObject>
        <mxCell id="Ij2glKgWh5G4JfFQvjD3-25" value="Email" style="whiteSpace=wrap;html=1;align=center;verticalAlign=middle;treeFolding=1;treeMoving=1;newEdgeStyle={&quot;edgeStyle&quot;:&quot;elbowEdgeStyle&quot;,&quot;startArrow&quot;:&quot;none&quot;,&quot;endArrow&quot;:&quot;none&quot;};fillColor=#B3B3B3;" parent="Ij2glKgWh5G4JfFQvjD3-21" vertex="1">
          <mxGeometry x="20" y="140" width="100" height="60" as="geometry" />
        </mxCell>
        <mxCell id="Ij2glKgWh5G4JfFQvjD3-26" value="SMS" style="whiteSpace=wrap;html=1;align=center;verticalAlign=middle;treeFolding=1;treeMoving=1;newEdgeStyle={&quot;edgeStyle&quot;:&quot;elbowEdgeStyle&quot;,&quot;startArrow&quot;:&quot;none&quot;,&quot;endArrow&quot;:&quot;none&quot;};fillColor=#B3B3B3;" parent="Ij2glKgWh5G4JfFQvjD3-21" vertex="1">
          <mxGeometry x="160" y="140" width="100" height="60" as="geometry" />
        </mxCell>
        <mxCell id="Ij2glKgWh5G4JfFQvjD3-28" value="LB - FT" style="text;html=1;align=center;verticalAlign=middle;whiteSpace=wrap;rounded=0;fontStyle=1" parent="1" vertex="1">
          <mxGeometry x="330" y="20" width="60" height="30" as="geometry" />
        </mxCell>
        <mxCell id="Ij2glKgWh5G4JfFQvjD3-29" value="LB - FT" style="text;html=1;align=center;verticalAlign=middle;whiteSpace=wrap;rounded=0;fontStyle=1" parent="1" vertex="1">
          <mxGeometry x="-70" y="20" width="60" height="30" as="geometry" />
        </mxCell>
        <mxCell id="tUTnhsVYIimUZp7xdD1t-3" style="edgeStyle=orthogonalEdgeStyle;rounded=0;orthogonalLoop=1;jettySize=auto;html=1;entryX=0;entryY=0.5;entryDx=0;entryDy=0;" edge="1" parent="1" source="Ij2glKgWh5G4JfFQvjD3-33" target="Ij2glKgWh5G4JfFQvjD3-36">
          <mxGeometry relative="1" as="geometry" />
        </mxCell>
        <mxCell id="Ij2glKgWh5G4JfFQvjD3-33" value="Subscription&lt;div&gt;DB(WRITE)&lt;/div&gt;" style="shape=datastore;whiteSpace=wrap;html=1;fillColor=#FFCCE6;" parent="1" vertex="1">
          <mxGeometry x="-310" y="1140" width="113" height="70" as="geometry" />
        </mxCell>
        <mxCell id="Ij2glKgWh5G4JfFQvjD3-60" style="edgeStyle=orthogonalEdgeStyle;rounded=0;orthogonalLoop=1;jettySize=auto;html=1;entryX=0.25;entryY=1;entryDx=0;entryDy=0;exitX=0.5;exitY=0;exitDx=0;exitDy=0;exitPerimeter=0;fillColor=#FF0000;strokeColor=#FF0000;" parent="1" source="Ij2glKgWh5G4JfFQvjD3-46" target="Ij2glKgWh5G4JfFQvjD3-40" edge="1">
          <mxGeometry relative="1" as="geometry" />
        </mxCell>
        <mxCell id="Ij2glKgWh5G4JfFQvjD3-46" value="Kafka" style="strokeWidth=2;html=1;shape=mxgraph.flowchart.direct_data;whiteSpace=wrap;" parent="1" vertex="1">
          <mxGeometry x="-460" y="1290" width="170" height="40" as="geometry" />
        </mxCell>
        <mxCell id="Ij2glKgWh5G4JfFQvjD3-47" style="edgeStyle=orthogonalEdgeStyle;rounded=0;orthogonalLoop=1;jettySize=auto;html=1;entryX=0;entryY=0.5;entryDx=0;entryDy=0;entryPerimeter=0;exitX=0.4;exitY=1;exitDx=0;exitDy=0;exitPerimeter=0;fillColor=#FF0000;strokeColor=#FF0000;" parent="1" source="Ij2glKgWh5G4JfFQvjD3-38" target="Ij2glKgWh5G4JfFQvjD3-46" edge="1">
          <mxGeometry relative="1" as="geometry">
            <mxPoint x="-443" y="970" as="sourcePoint" />
          </mxGeometry>
        </mxCell>
        <mxCell id="tUTnhsVYIimUZp7xdD1t-1" style="edgeStyle=orthogonalEdgeStyle;rounded=0;orthogonalLoop=1;jettySize=auto;html=1;entryX=0;entryY=0.5;entryDx=0;entryDy=0;exitX=1;exitY=0.5;exitDx=0;exitDy=0;strokeColor=#FF8547;" edge="1" parent="1" source="Ij2glKgWh5G4JfFQvjD3-40" target="Ij2glKgWh5G4JfFQvjD3-91">
          <mxGeometry relative="1" as="geometry" />
        </mxCell>
        <mxCell id="tUTnhsVYIimUZp7xdD1t-2" style="edgeStyle=orthogonalEdgeStyle;rounded=0;orthogonalLoop=1;jettySize=auto;html=1;exitX=0;exitY=0.5;exitDx=0;exitDy=0;entryX=0;entryY=0.5;entryDx=0;entryDy=0;" edge="1" parent="1" source="Ij2glKgWh5G4JfFQvjD3-36" target="Ij2glKgWh5G4JfFQvjD3-3">
          <mxGeometry relative="1" as="geometry">
            <mxPoint x="-740" y="1241" as="sourcePoint" />
            <mxPoint x="-610" y="630" as="targetPoint" />
          </mxGeometry>
        </mxCell>
        <mxCell id="Ij2glKgWh5G4JfFQvjD3-36" value="Schedule Management Service" style="swimlane;startSize=20;horizontal=1;childLayout=flowLayout;flowOrientation=north;resizable=0;interRankCellSpacing=50;containerType=tree;fontSize=12;fillColor=#B3B3B3;" parent="1" vertex="1">
          <mxGeometry x="-580" y="800" width="300" height="190" as="geometry" />
        </mxCell>
        <mxCell id="Ij2glKgWh5G4JfFQvjD3-37" value="Start" style="whiteSpace=wrap;html=1;" parent="Ij2glKgWh5G4JfFQvjD3-36" vertex="1">
          <mxGeometry x="20" y="40" width="100" height="40" as="geometry" />
        </mxCell>
        <mxCell id="Ij2glKgWh5G4JfFQvjD3-38" value="&lt;span style=&quot;text-align: start; font-size: 12pt; line-height: 18.4px; font-family: Roboto; color: rgb(13, 13, 13); background: white;&quot; lang=&quot;EN-GB&quot;&gt;Scheduler&lt;/span&gt;&lt;span style=&quot;font-size: medium; text-align: start;&quot;&gt;&lt;/span&gt;" style="whiteSpace=wrap;html=1;fillColor=#B3B3B3;" parent="Ij2glKgWh5G4JfFQvjD3-36" vertex="1">
          <mxGeometry x="20" y="130" width="100" height="40" as="geometry" />
        </mxCell>
        <mxCell id="Ij2glKgWh5G4JfFQvjD3-39" value="" style="html=1;rounded=1;curved=0;sourcePerimeterSpacing=0;targetPerimeterSpacing=0;startSize=6;endSize=6;noEdgeStyle=1;orthogonal=1;" parent="Ij2glKgWh5G4JfFQvjD3-36" source="Ij2glKgWh5G4JfFQvjD3-37" target="Ij2glKgWh5G4JfFQvjD3-38" edge="1">
          <mxGeometry relative="1" as="geometry">
            <Array as="points">
              <mxPoint x="70" y="92" />
              <mxPoint x="70" y="118" />
            </Array>
          </mxGeometry>
        </mxCell>
        <mxCell id="Ij2glKgWh5G4JfFQvjD3-40" value="&lt;span style=&quot;text-align: start; font-size: 12pt; line-height: 18.4px; font-family: Roboto; color: rgb(13, 13, 13); background: white;&quot; lang=&quot;EN-GB&quot;&gt;Worker Nodes&lt;/span&gt;&lt;span style=&quot;font-size: medium; text-align: start;&quot;&gt;&lt;/span&gt;" style="whiteSpace=wrap;html=1;fillColor=#B3B3B3;" parent="Ij2glKgWh5G4JfFQvjD3-36" vertex="1">
          <mxGeometry x="180" y="40" width="100" height="40" as="geometry" />
        </mxCell>
        <mxCell id="Ij2glKgWh5G4JfFQvjD3-48" value="" style="points=[[0.5,0,0],[0.765,0.48,0],[0.99,0.98,0],[0.5,1,0],[0.01,0.98,0],[0.235,0.48,0]];verticalLabelPosition=bottom;sketch=0;html=1;verticalAlign=top;aspect=fixed;align=center;pointerEvents=1;shape=mxgraph.cisco19.ldap;fillColor=#005073;strokeColor=none;" parent="1" vertex="1">
          <mxGeometry x="-485" y="489.75" width="50" height="42.5" as="geometry" />
        </mxCell>
        <mxCell id="Ij2glKgWh5G4JfFQvjD3-49" value="LDAP" style="text;html=1;align=center;verticalAlign=middle;whiteSpace=wrap;rounded=0;fontStyle=1" parent="1" vertex="1">
          <mxGeometry x="-490" y="532.25" width="60" height="30" as="geometry" />
        </mxCell>
        <mxCell id="eb-GinIf9wwiEzNU0itZ-10" style="edgeStyle=orthogonalEdgeStyle;rounded=0;orthogonalLoop=1;jettySize=auto;html=1;" parent="1" source="Ij2glKgWh5G4JfFQvjD3-58" target="eb-GinIf9wwiEzNU0itZ-9" edge="1">
          <mxGeometry relative="1" as="geometry" />
        </mxCell>
        <mxCell id="Ij2glKgWh5G4JfFQvjD3-58" value="Profile Info&lt;div&gt;DB&lt;/div&gt;" style="shape=datastore;whiteSpace=wrap;html=1;fillColor=#FFCCE6;" parent="1" vertex="1">
          <mxGeometry x="-390" y="571" width="120" height="60" as="geometry" />
        </mxCell>
        <mxCell id="Ij2glKgWh5G4JfFQvjD3-61" value="Kafka" style="strokeWidth=2;html=1;shape=mxgraph.flowchart.direct_data;whiteSpace=wrap;" parent="1" vertex="1">
          <mxGeometry x="600" y="1200" width="275" height="40" as="geometry" />
        </mxCell>
        <mxCell id="Ij2glKgWh5G4JfFQvjD3-63" value="Reporting Service" style="swimlane;startSize=20;horizontal=1;containerType=tree;newEdgeStyle={&quot;edgeStyle&quot;:&quot;elbowEdgeStyle&quot;,&quot;startArrow&quot;:&quot;none&quot;,&quot;endArrow&quot;:&quot;none&quot;};fillColor=#B3B3B3;" parent="1" vertex="1">
          <mxGeometry x="390" y="800" width="280" height="210" as="geometry" />
        </mxCell>
        <mxCell id="Ij2glKgWh5G4JfFQvjD3-64" value="" style="edgeStyle=elbowEdgeStyle;elbow=vertical;sourcePerimeterSpacing=0;targetPerimeterSpacing=0;startArrow=none;endArrow=none;rounded=0;curved=0;" parent="Ij2glKgWh5G4JfFQvjD3-63" source="Ij2glKgWh5G4JfFQvjD3-66" target="Ij2glKgWh5G4JfFQvjD3-67" edge="1">
          <mxGeometry relative="1" as="geometry" />
        </mxCell>
        <mxCell id="Ij2glKgWh5G4JfFQvjD3-65" value="" style="edgeStyle=elbowEdgeStyle;elbow=vertical;sourcePerimeterSpacing=0;targetPerimeterSpacing=0;startArrow=none;endArrow=none;rounded=0;curved=0;" parent="Ij2glKgWh5G4JfFQvjD3-63" source="Ij2glKgWh5G4JfFQvjD3-66" target="Ij2glKgWh5G4JfFQvjD3-68" edge="1">
          <mxGeometry relative="1" as="geometry" />
        </mxCell>
        <UserObject label="Reporting&lt;div&gt;&amp;amp;&lt;/div&gt;&lt;div&gt;Analytics&lt;/div&gt;" treeRoot="1" id="Ij2glKgWh5G4JfFQvjD3-66">
          <mxCell style="whiteSpace=wrap;html=1;align=center;treeFolding=1;treeMoving=1;newEdgeStyle={&quot;edgeStyle&quot;:&quot;elbowEdgeStyle&quot;,&quot;startArrow&quot;:&quot;none&quot;,&quot;endArrow&quot;:&quot;none&quot;};fontStyle=1" parent="Ij2glKgWh5G4JfFQvjD3-63" vertex="1">
            <mxGeometry x="80" y="40" width="120" height="60" as="geometry" />
          </mxCell>
        </UserObject>
        <mxCell id="Ij2glKgWh5G4JfFQvjD3-67" value="Reporting&lt;div&gt;Engine&lt;/div&gt;" style="whiteSpace=wrap;html=1;align=center;verticalAlign=middle;treeFolding=1;treeMoving=1;newEdgeStyle={&quot;edgeStyle&quot;:&quot;elbowEdgeStyle&quot;,&quot;startArrow&quot;:&quot;none&quot;,&quot;endArrow&quot;:&quot;none&quot;};fillColor=#B3B3B3;" parent="Ij2glKgWh5G4JfFQvjD3-63" vertex="1">
          <mxGeometry x="20" y="140" width="100" height="60" as="geometry" />
        </mxCell>
        <mxCell id="Ij2glKgWh5G4JfFQvjD3-68" value="Analytics&lt;div&gt;Module&lt;/div&gt;" style="whiteSpace=wrap;html=1;align=center;verticalAlign=middle;treeFolding=1;treeMoving=1;newEdgeStyle={&quot;edgeStyle&quot;:&quot;elbowEdgeStyle&quot;,&quot;startArrow&quot;:&quot;none&quot;,&quot;endArrow&quot;:&quot;none&quot;};fillColor=#B3B3B3;" parent="Ij2glKgWh5G4JfFQvjD3-63" vertex="1">
          <mxGeometry x="160" y="140" width="100" height="60" as="geometry" />
        </mxCell>
        <mxCell id="Ij2glKgWh5G4JfFQvjD3-71" style="edgeStyle=orthogonalEdgeStyle;rounded=0;orthogonalLoop=1;jettySize=auto;html=1;entryX=0;entryY=0.5;entryDx=0;entryDy=0;entryPerimeter=0;exitX=0.75;exitY=1;exitDx=0;exitDy=0;strokeColor=#2617FF;" parent="1" source="Ij2glKgWh5G4JfFQvjD3-40" target="Ij2glKgWh5G4JfFQvjD3-61" edge="1">
          <mxGeometry relative="1" as="geometry">
            <mxPoint x="-360" y="1260" as="sourcePoint" />
            <mxPoint x="540" y="1620" as="targetPoint" />
          </mxGeometry>
        </mxCell>
        <mxCell id="Ij2glKgWh5G4JfFQvjD3-73" value="" style="endArrow=none;dashed=1;html=1;rounded=0;fontStyle=1;exitX=1;exitY=0.5;exitDx=0;exitDy=0;entryX=0.5;entryY=1;entryDx=0;entryDy=0;" parent="1" source="Ij2glKgWh5G4JfFQvjD3-33" target="Ij2glKgWh5G4JfFQvjD3-91" edge="1">
          <mxGeometry width="50" height="50" relative="1" as="geometry">
            <mxPoint x="-210" y="1158" as="sourcePoint" />
            <mxPoint x="-70" y="1098" as="targetPoint" />
            <Array as="points" />
          </mxGeometry>
        </mxCell>
        <mxCell id="Ij2glKgWh5G4JfFQvjD3-90" value="EVENT" style="edgeLabel;html=1;align=center;verticalAlign=middle;resizable=0;points=[];fontStyle=1" parent="Ij2glKgWh5G4JfFQvjD3-73" vertex="1" connectable="0">
          <mxGeometry x="-0.7841" y="1" relative="1" as="geometry">
            <mxPoint x="45" y="1" as="offset" />
          </mxGeometry>
        </mxCell>
        <mxCell id="Ij2glKgWh5G4JfFQvjD3-74" value="&lt;div style=&quot;text-align: justify;&quot;&gt;&lt;b style=&quot;background-color: initial;&quot;&gt;Internet&lt;/b&gt;&lt;/div&gt;" style="ellipse;shape=cloud;whiteSpace=wrap;html=1;fillColor=#FFF4C3;align=center;" parent="1" vertex="1">
          <mxGeometry x="590" y="430" width="159" height="100" as="geometry" />
        </mxCell>
        <mxCell id="Ij2glKgWh5G4JfFQvjD3-76" style="edgeStyle=orthogonalEdgeStyle;rounded=0;orthogonalLoop=1;jettySize=auto;html=1;entryX=0.529;entryY=1;entryDx=0;entryDy=0;entryPerimeter=0;" parent="1" source="Ij2glKgWh5G4JfFQvjD3-74" target="E8B6rwo0TzkrYEJieWMp-55" edge="1">
          <mxGeometry relative="1" as="geometry" />
        </mxCell>
        <mxCell id="Ij2glKgWh5G4JfFQvjD3-77" value="Payment&lt;div&gt;Status DB&lt;/div&gt;" style="shape=datastore;whiteSpace=wrap;html=1;fillColor=#FFCCE6;" parent="1" vertex="1">
          <mxGeometry x="710" y="1060" width="129" height="60" as="geometry" />
        </mxCell>
        <mxCell id="Ij2glKgWh5G4JfFQvjD3-78" style="edgeStyle=orthogonalEdgeStyle;rounded=0;orthogonalLoop=1;jettySize=auto;html=1;entryX=1;entryY=0.5;entryDx=0;entryDy=0;entryPerimeter=0;exitX=1;exitY=0.5;exitDx=0;exitDy=0;" parent="1" source="Ij2glKgWh5G4JfFQvjD3-10" target="Ij2glKgWh5G4JfFQvjD3-61" edge="1">
          <mxGeometry relative="1" as="geometry" />
        </mxCell>
        <mxCell id="eb-GinIf9wwiEzNU0itZ-4" value="" style="edgeStyle=elbowEdgeStyle;rounded=0;orthogonalLoop=1;jettySize=auto;html=1;elbow=vertical;startArrow=none;endArrow=none;" parent="1" source="Ij2glKgWh5G4JfFQvjD3-81" target="Ij2glKgWh5G4JfFQvjD3-91" edge="1">
          <mxGeometry relative="1" as="geometry" />
        </mxCell>
        <mxCell id="Ij2glKgWh5G4JfFQvjD3-81" value="Subscription Service" style="swimlane;startSize=20;horizontal=1;containerType=tree;newEdgeStyle={&quot;edgeStyle&quot;:&quot;elbowEdgeStyle&quot;,&quot;startArrow&quot;:&quot;none&quot;,&quot;endArrow&quot;:&quot;none&quot;};fillColor=#B3B3B3;" parent="1" vertex="1">
          <mxGeometry x="-230" y="800" width="280" height="210" as="geometry" />
        </mxCell>
        <mxCell id="Ij2glKgWh5G4JfFQvjD3-82" value="" style="edgeStyle=elbowEdgeStyle;elbow=vertical;sourcePerimeterSpacing=0;targetPerimeterSpacing=0;startArrow=none;endArrow=none;rounded=0;curved=0;" parent="Ij2glKgWh5G4JfFQvjD3-81" source="Ij2glKgWh5G4JfFQvjD3-84" target="Ij2glKgWh5G4JfFQvjD3-85" edge="1">
          <mxGeometry relative="1" as="geometry" />
        </mxCell>
        <mxCell id="Ij2glKgWh5G4JfFQvjD3-83" value="" style="edgeStyle=elbowEdgeStyle;elbow=vertical;sourcePerimeterSpacing=0;targetPerimeterSpacing=0;startArrow=none;endArrow=none;rounded=0;curved=0;" parent="Ij2glKgWh5G4JfFQvjD3-81" source="Ij2glKgWh5G4JfFQvjD3-84" target="Ij2glKgWh5G4JfFQvjD3-86" edge="1">
          <mxGeometry relative="1" as="geometry" />
        </mxCell>
        <UserObject label="Subscription&lt;div&gt;Management&lt;/div&gt;" treeRoot="1" id="Ij2glKgWh5G4JfFQvjD3-84">
          <mxCell style="whiteSpace=wrap;html=1;align=center;treeFolding=1;treeMoving=1;newEdgeStyle={&quot;edgeStyle&quot;:&quot;elbowEdgeStyle&quot;,&quot;startArrow&quot;:&quot;none&quot;,&quot;endArrow&quot;:&quot;none&quot;};fontStyle=1" parent="Ij2glKgWh5G4JfFQvjD3-81" vertex="1">
            <mxGeometry x="80" y="40" width="120" height="60" as="geometry" />
          </mxCell>
        </UserObject>
        <mxCell id="Ij2glKgWh5G4JfFQvjD3-85" value="Command" style="whiteSpace=wrap;html=1;align=center;verticalAlign=middle;treeFolding=1;treeMoving=1;newEdgeStyle={&quot;edgeStyle&quot;:&quot;elbowEdgeStyle&quot;,&quot;startArrow&quot;:&quot;none&quot;,&quot;endArrow&quot;:&quot;none&quot;};fillColor=#B3B3B3;" parent="Ij2glKgWh5G4JfFQvjD3-81" vertex="1">
          <mxGeometry x="20" y="140" width="100" height="60" as="geometry" />
        </mxCell>
        <mxCell id="Ij2glKgWh5G4JfFQvjD3-86" value="Query" style="whiteSpace=wrap;html=1;align=center;verticalAlign=middle;treeFolding=1;treeMoving=1;newEdgeStyle={&quot;edgeStyle&quot;:&quot;elbowEdgeStyle&quot;,&quot;startArrow&quot;:&quot;none&quot;,&quot;endArrow&quot;:&quot;none&quot;};fillColor=#B3B3B3;" parent="Ij2glKgWh5G4JfFQvjD3-81" vertex="1">
          <mxGeometry x="158" y="140" width="100" height="60" as="geometry" />
        </mxCell>
        <mxCell id="Ij2glKgWh5G4JfFQvjD3-91" value="Subscription&lt;div&gt;DB(READ)&lt;/div&gt;" style="shape=datastore;whiteSpace=wrap;html=1;fillColor=#FFCCE6;" parent="1" vertex="1">
          <mxGeometry x="-50" y="1108" width="113" height="70" as="geometry" />
        </mxCell>
        <mxCell id="Ij2glKgWh5G4JfFQvjD3-92" style="edgeStyle=elbowEdgeStyle;rounded=0;orthogonalLoop=1;jettySize=auto;html=1;startArrow=none;endArrow=none;entryX=0.5;entryY=0;entryDx=0;entryDy=0;" parent="1" source="Ij2glKgWh5G4JfFQvjD3-86" target="Ij2glKgWh5G4JfFQvjD3-91" edge="1">
          <mxGeometry relative="1" as="geometry" />
        </mxCell>
        <mxCell id="Ij2glKgWh5G4JfFQvjD3-93" value="&lt;b&gt;READ&lt;/b&gt;" style="edgeLabel;html=1;align=center;verticalAlign=middle;resizable=0;points=[];" parent="Ij2glKgWh5G4JfFQvjD3-92" vertex="1" connectable="0">
          <mxGeometry x="0.0083" y="1" relative="1" as="geometry">
            <mxPoint as="offset" />
          </mxGeometry>
        </mxCell>
        <mxCell id="Ij2glKgWh5G4JfFQvjD3-94" value="" style="endArrow=none;dashed=1;html=1;dashPattern=1 3;strokeWidth=2;rounded=0;entryX=0.5;entryY=1;entryDx=0;entryDy=0;exitX=1;exitY=0.5;exitDx=0;exitDy=0;" parent="1" source="Ij2glKgWh5G4JfFQvjD3-91" target="Ij2glKgWh5G4JfFQvjD3-67" edge="1">
          <mxGeometry width="50" height="50" relative="1" as="geometry">
            <mxPoint x="190" y="1170" as="sourcePoint" />
            <mxPoint x="240" y="1120" as="targetPoint" />
            <Array as="points">
              <mxPoint x="460" y="1140" />
            </Array>
          </mxGeometry>
        </mxCell>
        <mxCell id="Ij2glKgWh5G4JfFQvjD3-95" value="" style="endArrow=none;dashed=1;html=1;dashPattern=1 3;strokeWidth=2;rounded=0;entryX=0.25;entryY=1;entryDx=0;entryDy=0;exitX=0.5;exitY=0;exitDx=0;exitDy=0;exitPerimeter=0;" parent="1" source="Ij2glKgWh5G4JfFQvjD3-61" target="Ij2glKgWh5G4JfFQvjD3-63" edge="1">
          <mxGeometry width="50" height="50" relative="1" as="geometry">
            <mxPoint x="190" y="1120" as="sourcePoint" />
            <mxPoint x="240" y="1070" as="targetPoint" />
            <Array as="points">
              <mxPoint x="650" y="1070" />
            </Array>
          </mxGeometry>
        </mxCell>
        <mxCell id="Ij2glKgWh5G4JfFQvjD3-96" value="" style="endArrow=none;dashed=1;html=1;dashPattern=1 3;strokeWidth=2;rounded=0;entryX=1;entryY=0.5;entryDx=0;entryDy=0;exitX=0.5;exitY=0;exitDx=0;exitDy=0;" parent="1" source="Ij2glKgWh5G4JfFQvjD3-77" target="Ij2glKgWh5G4JfFQvjD3-68" edge="1">
          <mxGeometry width="50" height="50" relative="1" as="geometry">
            <mxPoint x="190" y="1120" as="sourcePoint" />
            <mxPoint x="240" y="1070" as="targetPoint" />
            <Array as="points">
              <mxPoint x="730" y="970" />
            </Array>
          </mxGeometry>
        </mxCell>
        <mxCell id="eb-GinIf9wwiEzNU0itZ-8" style="edgeStyle=orthogonalEdgeStyle;rounded=0;orthogonalLoop=1;jettySize=auto;html=1;entryX=1;entryY=0.5;entryDx=0;entryDy=0;" parent="1" source="eb-GinIf9wwiEzNU0itZ-6" target="Ij2glKgWh5G4JfFQvjD3-91" edge="1">
          <mxGeometry relative="1" as="geometry">
            <mxPoint x="110" y="1087" as="sourcePoint" />
          </mxGeometry>
        </mxCell>
        <mxCell id="eb-GinIf9wwiEzNU0itZ-6" value="" style="image;sketch=0;aspect=fixed;html=1;points=[];align=center;fontSize=12;image=img/lib/mscae/Cache_Redis_Product.svg;" parent="1" vertex="1">
          <mxGeometry x="110" y="1027" width="50" height="42" as="geometry" />
        </mxCell>
        <mxCell id="eb-GinIf9wwiEzNU0itZ-7" style="edgeStyle=elbowEdgeStyle;rounded=0;orthogonalLoop=1;jettySize=auto;html=1;startArrow=none;endArrow=none;" parent="1" source="Ij2glKgWh5G4JfFQvjD3-86" target="eb-GinIf9wwiEzNU0itZ-6" edge="1">
          <mxGeometry relative="1" as="geometry" />
        </mxCell>
        <mxCell id="eb-GinIf9wwiEzNU0itZ-9" value="" style="image;sketch=0;aspect=fixed;html=1;points=[];align=center;fontSize=12;image=img/lib/mscae/Cache_Redis_Product.svg;" parent="1" vertex="1">
          <mxGeometry x="-204" y="551" width="50" height="42" as="geometry" />
        </mxCell>
        <mxCell id="tUTnhsVYIimUZp7xdD1t-7" value="Reverse Proxy" style="sketch=0;pointerEvents=1;shadow=0;dashed=0;html=1;strokeColor=none;fillColor=#505050;labelPosition=center;verticalLabelPosition=bottom;verticalAlign=top;outlineConnect=0;align=center;shape=mxgraph.office.servers.reverse_proxy;fontStyle=1" vertex="1" parent="1">
          <mxGeometry x="160" y="489.75" width="41" height="53" as="geometry" />
        </mxCell>
        <mxCell id="tUTnhsVYIimUZp7xdD1t-10" value="" style="endArrow=none;dashed=1;html=1;dashPattern=1 3;strokeWidth=2;rounded=0;entryX=0.5;entryY=1;entryDx=0;entryDy=0;exitX=1;exitY=0.5;exitDx=0;exitDy=0;exitPerimeter=0;" edge="1" parent="1" source="Ij2glKgWh5G4JfFQvjD3-46">
          <mxGeometry width="50" height="50" relative="1" as="geometry">
            <mxPoint x="73" y="1153" as="sourcePoint" />
            <mxPoint x="470" y="1010" as="targetPoint" />
            <Array as="points">
              <mxPoint x="470" y="1310" />
            </Array>
          </mxGeometry>
        </mxCell>
      </root>
    </mxGraphModel>
  </diagram>
</mxfile>
